<svg width="492" height="462" viewBox="0 0 492 462" fill="#e2e2e2" fill-opacity="0.25" xmlns="http://www.w3.org/2000/svg">
<path d="M133.333 178.667H50V410C50 411.105 50.8954 412 52 412H348C349.105 412 350 411.105 350 410V228.667L333.333 245.333H183.333L133.333 178.667Z" fill="#7E869E" fill-opacity="0.25"/>
<path d="M50 116.8C50 115.12 50 114.28 50.327 113.638C50.6146 113.074 51.0735 112.615 51.638 112.327C52.2798 112 53.1198 112 54.8 112H345.2C346.88 112 347.72 112 348.362 112.327C348.926 112.615 349.385 113.074 349.673 113.638C350 114.28 350 115.12 350 116.8V407.2C350 408.88 350 409.72 349.673 410.362C349.385 410.926 348.926 411.385 348.362 411.673C347.72 412 346.88 412 345.2 412H54.8C53.1198 412 52.2798 412 51.638 411.673C51.0735 411.385 50.6146 410.926 50.327 410.362C50 409.72 50 408.88 50 407.2V116.8Z" stroke="#222222" stroke-width="1.2"/>
<path d="M50 178.667H131.333C132.315 178.667 132.805 178.667 133.228 178.878C133.65 179.089 133.944 179.482 134.533 180.267L182.133 243.733C182.722 244.518 183.017 244.911 183.439 245.122C183.861 245.333 184.352 245.333 185.333 245.333H346C347.886 245.333 348.828 245.333 349.414 244.748C350 244.162 350 243.219 350 241.333V195.333" stroke="#222222" stroke-width="1.2"/>
<path d="M116.667 328.667H250" stroke="#222222" stroke-width="1.2" stroke-linecap="round"/>
<path d="M262.292 168.458C262.292 158.952 262.292 154.198 265.245 151.245C268.198 148.292 272.952 148.292 282.458 148.292H292.542C302.048 148.292 306.802 148.292 309.755 151.245C312.708 154.198 312.708 158.952 312.708 168.458V178.542C312.708 188.048 312.708 192.802 309.755 195.755C306.802 198.708 302.048 198.708 292.542 198.708H282.458C272.952 198.708 268.198 198.708 265.245 195.755C262.292 192.802 262.292 188.048 262.292 178.542V168.458Z" stroke="#33363F" stroke-width="2"/>
<path d="M296.584 163.417H278.417C277.865 163.417 277.417 163.865 277.417 164.417V182.584C277.417 183.136 277.865 183.584 278.417 183.584H296.584C297.136 183.584 297.584 183.136 297.584 182.584V164.417C297.584 163.865 297.136 163.417 296.584 163.417Z" fill="#33363F"/>
<path d="M277.417 148.292V133.167" stroke="#33363F" stroke-width="2" stroke-linecap="round"/>
<path d="M297.583 148.292V133.167" stroke="#33363F" stroke-width="2" stroke-linecap="round"/>
<path d="M312.708 163.417H327.833" stroke="#33363F" stroke-width="2" stroke-linecap="round"/>
<path d="M312.708 183.583H327.833" stroke="#33363F" stroke-width="2" stroke-linecap="round"/>
<path d="M277.417 213.833V198.708" stroke="#33363F" stroke-width="2" stroke-linecap="round"/>
<path d="M297.583 213.833V198.708" stroke="#33363F" stroke-width="2" stroke-linecap="round"/>
<path d="M247.167 163.417H262.292" stroke="#33363F" stroke-width="2" stroke-linecap="round"/>
<path d="M247.167 183.583H262.292" stroke="#33363F" stroke-width="2" stroke-linecap="round"/>
<path d="M311.057 112.119L295.291 72.7338C295.15 72.3811 295.523 72.0427 295.861 72.2174L378.701 115.116C379.127 115.337 379.46 115.703 379.638 116.149L414.307 202.757C414.448 203.109 414.075 203.448 413.738 203.273L376.066 183.765" stroke="#222222" stroke-linecap="round" stroke-linejoin="round"/>
<path d="M351.021 170.599C350.816 170.785 350.801 171.101 350.987 171.305C351.172 171.51 351.488 171.525 351.693 171.34L351.021 170.599ZM387.865 137.168L351.021 170.599L351.693 171.34L388.537 137.909L387.865 137.168Z" fill="#222222"/>
</svg>
